<svg id="Laag_1" data-name="Laag 1" xmlns="http://www.w3.org/2000/svg" viewBox="0 0 12.9 13.01"><defs><style>.cls-1{fill:#46d07a;}</style></defs><title>download</title><path class="cls-1" d="M10.27.12H3A2.84,2.84,0,0,0,.2,3V10.3A2.84,2.84,0,0,0,3,13.13h7.23a2.84,2.84,0,0,0,2.84-2.83V3A2.84,2.84,0,0,0,10.27.12ZM4.94,6,6.33,7.6V2.2h1V7.77L8.7,6.06l.78.62L7,9.83,4.19,6.7Zm6.39,4.19a1.16,1.16,0,0,1-1.15,1.15H3.37a1.15,1.15,0,0,1-1.15-1.15V5.76A1.15,1.15,0,0,1,3.37,4.61h.51v.6H3.37a.55.55,0,0,0-.55.55v4.47a.55.55,0,0,0,.55.55h6.81a.55.55,0,0,0,.55-.55V5.76a.55.55,0,0,0-.55-.55H9.7v-.6h.48a1.16,1.16,0,0,1,1.15,1.15Z" transform="translate(-0.2 -0.12)"/></svg>
