<svg id="Laag_1" data-name="Laag 1" xmlns="http://www.w3.org/2000/svg" viewBox="0 0 12.9 11.24"><defs><style>.cls-1{fill:#46d07a;}</style></defs><title>favoriet</title><path class="cls-1" d="M12.92,2.47A3.31,3.31,0,0,0,11.35.65,3.1,3.1,0,0,0,9.44.35a3.25,3.25,0,0,0-1.79,1,4,4,0,0,0-1,1.53,4.18,4.18,0,0,0-1-1.53A3.29,3.29,0,0,0,4,.35a3.07,3.07,0,0,0-1.9.3A3.35,3.35,0,0,0,.47,2.47,3.82,3.82,0,0,0,.39,4.78,4.84,4.84,0,0,0,1.51,6.87c.1.12.27.29.62.63C2.63,8,3,8.28,3.74,9l1.71,1.52c.5.44.93.8,1.25,1.06L8,10.49,9.66,9c.77-.69,1.11-1,1.61-1.47.34-.34.52-.51.62-.63A4.85,4.85,0,0,0,13,4.78,3.74,3.74,0,0,0,12.92,2.47Z" transform="translate(-0.25 -0.31)"/></svg>
