<svg id="Laag_1" data-name="Laag 1" xmlns="http://www.w3.org/2000/svg" viewBox="0 0 12.88 12.88"><defs><style>.cls-1{fill:#fff;}.cls-2{fill:none;stroke:#fff;stroke-miterlimit:10;stroke-width:1.5px;}.cls-3{fill:#46d07a;}.cls-4{fill:#46c27a;}</style></defs><title>overons</title><ellipse class="cls-1" cx="6.49" cy="4.88" rx="2.17" ry="2.77"/><path class="cls-2" d="M4,9.14a3,3,0,0,0,2.83,1.7,3.13,3.13,0,0,0,2.4-1.51" transform="translate(-0.17 -0.05)"/><circle class="cls-3" cx="6.44" cy="6.44" r="6.44"/><ellipse class="cls-1" cx="6.44" cy="5.14" rx="2.97" ry="3.79"/><path class="cls-2" d="M2.55,8.35A4.64,4.64,0,0,0,6.93,11a4.87,4.87,0,0,0,3.69-2.33" transform="translate(-0.17 -0.05)"/><path class="cls-4" d="M7.2,7.13a.41.41,0,0,1,.26.1.39.39,0,0,1,.14.2.36.36,0,0,1,0,.23.33.33,0,0,1-.2.18.67.67,0,0,1-.26,0,1.51,1.51,0,0,1-.3,0H6a.32.32,0,0,1-.22-.07.38.38,0,0,1-.14-.17.47.47,0,0,1,0-.21.47.47,0,0,1,.12-.2A.35.35,0,0,1,6,7.13h.28V4.7H6a.4.4,0,0,1-.24-.09.29.29,0,0,1-.12-.15.28.28,0,0,1,0-.18.38.38,0,0,1,.08-.17A.44.44,0,0,1,5.82,4,.57.57,0,0,1,6,4H7.27a.07.07,0,0,1,.06,0l.06,0a.41.41,0,0,1,.19.22.33.33,0,0,1,0,.29.43.43,0,0,1-.11.12l-.14,0-.16,0H7V7.14H7.2Z" transform="translate(-0.17 -0.05)"/><circle class="cls-4" cx="6.42" cy="2.6" r="0.54"/></svg>
