<svg id="Laag_1" data-name="Laag 1" xmlns="http://www.w3.org/2000/svg" viewBox="0 0 13.01 13.01"><defs><style>.cls-1{fill:#46d07a;}</style></defs><title>user</title><path class="cls-1" d="M6.65.12a6.51,6.51,0,1,0,6.51,6.5A6.5,6.5,0,0,0,6.65.12Zm0,2A2.52,2.52,0,0,1,8.82,4.93,2.52,2.52,0,0,1,6.65,7.7c-1.19,0-2.16-1.24-2.16-2.77S5.46,2.16,6.65,2.16Zm.27,9.43H6.71A3.75,3.75,0,0,1,3.37,9.48l1.35-.67A2.24,2.24,0,0,0,6.83,10.1,2.41,2.41,0,0,0,8.62,9l1.3.75A3.91,3.91,0,0,1,6.92,11.59Z" transform="translate(-0.15 -0.12)"/></svg>
